<svg width="328" height="960" viewBox="0 0 328 960" fill="none" xmlns="http://www.w3.org/2000/svg">
<g clip-path="url(#clip0_298_424)">
<path fill-rule="evenodd" clip-rule="evenodd" d="M57.4594 427.403C66.2257 428.53 73.1898 420.69 71.803 411.961L51.8157 286.151C49.7702 273.276 32.7845 269.94 26.0208 281.084L-31.8431 376.428C-35.5046 382.461 -34.1332 390.324 -28.3371 394.35C-3.36827 411.696 25.8585 423.341 57.4594 427.403ZM63.4853 431.096C70.1409 431.732 75.7204 436.618 76.7694 443.221L82.4725 479.119C82.9926 482.393 82.3341 485.745 80.6142 488.579L-178.962 916.29C-179.535 917.234 -179.235 918.465 -178.29 919.038C-177.346 919.611 -176.116 919.31 -175.543 918.366L64.4434 522.934C71.2071 511.789 88.1929 515.125 90.2383 528.001L116.345 692.328C116.865 695.602 116.207 698.955 114.487 701.789L-144.962 1129.29C-145.535 1130.23 -145.235 1131.46 -144.29 1132.04C-143.346 1132.61 -142.116 1132.31 -141.543 1131.37L73.83 776.49C81.9769 763.066 102.656 771.168 99.5154 786.554L29.4 1130.04C29.1791 1131.12 29.8773 1132.18 30.9595 1132.4C32.0418 1132.62 33.0983 1131.92 33.3192 1130.84L103.749 785.813C106.866 770.542 128.848 771.024 131.293 786.416L179.686 1091.02C179.859 1092.12 180.884 1092.86 181.975 1092.69C183.066 1092.51 183.81 1091.49 183.637 1090.4L121.517 699.388C121.48 699.158 121.486 698.924 121.532 698.697L121.818 697.297C121.874 697.022 121.697 696.755 121.423 696.699C121.216 696.656 121.057 696.49 121.023 696.281L79.5763 435.395C79.2924 433.608 80.6908 432 82.4999 432C188.332 432 274.721 348.758 279.767 244.177C280.043 238.448 283.564 233.394 288.589 230.629C312.081 217.7 328 192.709 328 164C328 122.026 293.974 88 252 88C244.551 88 237.353 89.0715 230.551 91.0689C225.044 92.6859 218.976 91.6246 214.713 87.7809C203.486 77.6572 191.091 68.8038 177.755 61.4473C170.394 57.3869 167.457 48.0356 171.819 40.849L200.382 -6.21494C200.955 -7.15921 200.654 -8.38927 199.71 -8.96235C198.765 -9.53543 197.535 -9.23451 196.962 -8.29024L166.214 42.3749C162.6 48.3289 155.176 50.6682 148.613 48.3372C127.943 40.9961 105.688 37 82.4999 37C65.7604 37 49.5073 39.0825 33.9855 43.0027C25.5435 45.1348 16.7419 39.8874 15.3757 31.2881L4.26424 -38.6524C4.09093 -39.7433 3.06609 -40.4871 1.9752 -40.3138C0.884308 -40.1405 0.140472 -39.1157 0.313782 -38.0248L12.3583 37.7887C13.4067 44.388 9.6185 50.7602 3.49544 53.4357C-66.2554 83.9132 -115 153.514 -115 234.5C-115 291.574 -90.7903 342.994 -52.0798 379.051C-46.9875 383.794 -45.6409 391.453 -49.2514 397.403L-64.9625 423.29C-65.5356 424.234 -65.2346 425.465 -64.2904 426.038C-63.3461 426.611 -62.116 426.31 -61.543 425.366L-48.0372 403.112C-43.672 395.919 -34.0102 394.211 -27.0124 398.882C-0.63382 416.491 30.222 427.919 63.4853 431.096ZM325 164C325 187.035 314.331 207.577 297.665 220.957C289.951 227.149 279.772 220.692 278.601 210.869C278.528 210.26 278.453 209.652 278.375 209.045C277.678 203.63 280.056 198.331 283.827 194.382C291.368 186.484 296 175.783 296 164C296 153.73 292.481 144.281 286.584 136.795C281.671 130.559 279.683 121.645 284.246 115.15L284.699 114.505C289.073 108.278 297.742 106.601 303.169 111.936C316.644 125.18 325 143.614 325 164ZM260.877 120.896C267.77 122.308 275.452 120.709 279.497 114.951L280.488 113.541C285.177 106.866 283.192 97.4749 275.468 94.854C268.103 92.3552 260.209 91 252 91C249.22 91 246.476 91.1554 243.777 91.458C233.953 92.5593 231.36 104.326 237.493 112.08C238.055 112.791 238.613 113.507 239.166 114.226C242.169 118.132 247.072 120 252 120C255.041 120 258.01 120.309 260.877 120.896ZM249.245 128.612C247.711 126.201 249.142 123 252 123C255.672 123 259.231 123.483 262.617 124.388C267.039 125.57 268.337 130.838 265.706 134.583C262.442 139.23 255.372 138.749 252.474 133.866C251.424 132.097 250.348 130.345 249.245 128.612ZM223.007 130.902C230.381 124.437 234.628 112.903 228.124 105.564C227.997 105.42 227.87 105.277 227.742 105.133C223.791 100.701 217.293 99.4885 212.312 102.721C192.262 115.733 179 138.318 179 164C179 181.204 184.951 197.018 194.908 209.496C200.001 215.879 209.518 214.568 214.212 207.887L215.197 206.484C219.238 200.731 218.145 192.97 214.469 186.977C210.366 180.29 208 172.421 208 164C208 150.805 213.808 138.967 223.007 130.902ZM233.258 180.774C228.368 187.735 218.183 188.702 214.661 180.959C212.31 175.791 211 170.048 211 164C211 147.938 220.236 134.033 233.688 127.307C238.833 124.734 244.826 127.161 247.861 132.048C249.524 134.728 251.125 137.451 252.66 140.215C255.159 144.715 254.713 150.231 251.755 154.443L233.258 180.774ZM216.969 210.92C221.537 204.417 230.609 203.278 238.154 205.777C242.507 207.219 247.162 208 252 208C253.018 208 254.029 207.965 255.03 207.897C264.82 207.231 276 212.348 276.614 222.141C276.626 222.334 276.637 222.526 276.649 222.718C277.003 228.64 273.287 234.101 267.488 235.354C262.496 236.432 257.314 237 252 237C240.659 237 229.921 234.414 220.346 229.799C213.498 226.499 212.147 217.784 216.517 211.564L216.969 210.92ZM271.758 189.457C273.084 195.05 270.584 201.008 265.138 202.85C261.014 204.244 256.595 205 252 205C247.401 205 242.978 204.243 238.851 202.846C231.744 200.441 230.468 191.704 234.781 185.565L244.703 171.44C250.879 162.648 264.107 163.891 267.441 174.105C269.082 179.135 270.524 184.255 271.758 189.457ZM289.946 179.556C286.029 189.101 274.072 185.18 270.985 175.336C268.956 168.865 266.603 162.538 263.945 156.374C261.937 151.716 262.343 146.329 265.258 142.179L266.435 140.504C270.753 134.357 279.413 132.604 284.092 138.481C289.668 145.484 293 154.353 293 164C293 169.506 291.914 174.759 289.946 179.556ZM176 164C176 141.064 186.16 120.5 202.226 106.565C209.53 100.23 211.436 88.5558 203.885 82.517C194.336 74.8813 184.053 68.1265 173.158 62.376C166.91 59.0788 159.292 61.4897 155.627 67.5286L51.7 238.772C49.98 241.606 49.3215 244.958 49.8417 248.232L77.9349 425.064C78.2932 427.319 80.2161 429 82.4999 429C182.793 429 265.357 353.09 275.87 255.59C276.907 245.973 267.274 239.089 257.627 239.795C255.769 239.931 253.893 240 252 240C210.026 240 176 205.974 176 164ZM-32.9821 370.595C-37.4131 377.896 -47.324 379.583 -53.4322 373.614C-89.569 338.299 -112 289.019 -112 234.5C-112 157.008 -66.6826 90.1012 -1.10374 58.8346C6.87843 55.0289 15.9382 60.3222 17.3257 69.0557L44.0498 237.269C44.57 240.543 43.9115 243.896 42.1916 246.73L-32.9821 370.595ZM29.6399 47.2691C23.1168 49.107 19.2469 55.6551 20.3102 62.3483L42.0758 199.35C44.1213 212.225 61.1071 215.562 67.8707 204.417L149.946 69.1792C154.374 61.883 151.304 52.3183 143.195 49.6572C124.097 43.3899 103.694 40 82.4999 40C64.1778 40 46.4474 42.5334 29.6399 47.2691Z" fill="#272727"/>
</g>
<defs>
<clipPath id="clip0_298_424">
<rect width="328" height="960" fill="white"/>
</clipPath>
</defs>
</svg>
