<svg width="300" height="300" viewBox="0 0 300 300" fill="none" xmlns="http://www.w3.org/2000/svg">
<circle cx="150" cy="150" r="150" fill="#DBDBDB"/>
<path fill-rule="evenodd" clip-rule="evenodd" d="M192.883 87.925C194.829 87.106 196.959 86.8235 199.051 87.107C201.144 87.3904 203.122 88.2296 204.78 89.5369C206.438 90.8443 207.715 92.5722 208.478 94.5407C209.242 96.5092 209.464 98.6464 209.121 100.73L191.261 209.066C189.528 219.516 178.062 225.509 168.478 220.304C160.462 215.949 148.555 209.239 137.845 202.239C132.49 198.734 116.086 187.512 118.102 179.527C119.834 172.699 147.397 147.043 163.147 131.789C169.329 125.796 166.51 122.339 159.209 127.851C141.081 141.538 111.975 162.352 102.352 168.211C93.8627 173.377 89.437 174.259 84.145 173.377C74.4902 171.77 65.5364 169.282 58.2284 166.25C48.3531 162.155 48.8335 148.578 58.2205 144.625L192.883 87.925Z" fill="#242424"/>
</svg>
